<svg width="68" height="90" viewBox="0 0 68 90" fill="none" xmlns="http://www.w3.org/2000/svg">
<path d="M64.0722 90H3.92785C1.7586 90 0 88.2298 0 86.0463V3.9537C0 1.77017 1.7586 0 3.92785 0H51.5703L67.9993 15.7242V86.0463C68 88.2298 66.2414 90 64.0722 90Z" fill="#F4F4F4"/>
<path d="M51.5706 0H44.5068L60.9359 15.7242V86.0463C60.9359 88.2298 59.178 90 57.008 90H64.0717C66.241 90 67.9996 88.2298 67.9996 86.0463V15.7242L51.5706 0Z" fill="#E8E8E8"/>
<path d="M60.9356 8.96347L51.5703 0H3.92785C1.7586 0 0 1.77017 0 3.9537V8.96347H60.9356Z" fill="#F6D867"/>
<path d="M46.4131 8.96347H60.9355L51.5702 0H46.4131V8.96347Z" fill="#E0C55E"/>
<path d="M51.5703 0V11.7705C51.5703 13.954 53.3289 15.7242 55.4982 15.7242H68L51.5703 0Z" fill="#DEDCDD"/>
<path d="M0 64.9559V86.0462C0 88.2298 1.7586 90 3.92785 90H64.0721C66.2414 90 68 88.2298 68 86.0462V64.9559H0Z" fill="#F6D867"/>
<path d="M60.9357 86.0454C60.9357 88.2289 59.1777 89.9991 57.0078 89.9991H64.0715C66.2381 89.9991 67.9994 88.2324 67.9994 86.0454V64.9551H60.9357V86.0454Z" fill="#E0C55E"/>
<path d="M27.9669 83.6761C30.4916 83.6761 32.538 81.656 32.538 79.1628V72.5442C32.538 71.9475 32.0578 71.4641 31.4657 71.4641C30.8736 71.4641 30.3933 71.9475 30.3933 72.5442V79.1628C30.3933 81.9478 26.4409 82.5809 25.6462 79.822C25.5173 79.3736 25.1073 79.0461 24.6202 79.0461C23.904 79.0461 23.393 79.7471 23.597 80.4351C24.1611 82.3392 25.9109 83.6761 27.9669 83.6761Z" fill="#495663"/>
<path d="M39.6787 81.6053C38.5041 81.6053 37.3505 81.1673 36.3293 80.6454C35.639 80.2911 34.8218 80.7992 34.8218 81.5772C34.8218 81.9693 35.0373 82.3119 35.3552 82.4911C39.3608 84.7282 44.4436 83.6721 44.4436 80.0659C44.4436 77.3935 41.8412 76.8448 39.6078 76.4376C38.1289 76.1678 37.1288 76.0305 37.1241 75.0499C37.1206 74.2253 37.8321 73.358 39.6255 73.358C41.6979 73.358 42.6468 74.3743 43.2921 74.3743C44.3583 74.3743 44.726 72.9275 43.7778 72.4187C39.0218 69.8658 34.9841 71.9854 34.9794 75.1399C34.9746 78.0128 37.7796 78.4378 39.6078 78.7386C41.2968 79.016 42.2982 79.1986 42.3057 80.1352C42.3173 81.3753 40.5226 81.6053 39.6787 81.6053Z" fill="#495663"/>
</svg>
