<svg width="60" height="90" viewBox="0 0 60 90" fill="none" xmlns="http://www.w3.org/2000/svg">
<path d="M14.9954 90.0008C23.275 90.0008 29.9907 83.2858 29.9907 75.007V60.0132H14.9954C6.71572 60.0132 0 66.7282 0 75.007C0 83.2858 6.71572 90.0008 14.9954 90.0008Z" fill="#0ACF83"/>
<path d="M0 45.0014C0 36.7226 6.71572 30.0076 14.9954 30.0076H29.9907V60.0135H14.9954C6.71572 59.9951 0 53.2801 0 45.0014Z" fill="#A259FF"/>
<path d="M0 14.9938C0 6.71501 6.71572 0 14.9954 0H29.9907V30.006H14.9954C6.71572 30.006 0 23.2726 0 14.9938Z" fill="#F24E1E"/>
<path d="M30.0093 0H45.0046C53.2843 0 60 6.71501 60 14.9938C60 23.2726 53.2843 29.9876 45.0046 29.9876H30.0093V0Z" fill="#FF7262"/>
<path d="M60 45.0014C60 53.2801 53.2843 59.9951 45.0047 59.9951C36.725 59.9951 30.0093 53.2801 30.0093 45.0014C30.0093 36.7226 36.725 30.0076 45.0047 30.0076C53.2843 30.0076 60 36.7226 60 45.0014Z" fill="#1ABCFE"/>
</svg>
