<svg width="14" height="15" viewBox="0 0 14 15" fill="none" xmlns="http://www.w3.org/2000/svg">
<mask id="path-1-inside-1" fill="white">
<path fill-rule="evenodd" clip-rule="evenodd" d="M13.2859 0.170808C13.9527 0.537522 14.1959 1.37531 13.8292 2.04207L7.61748 13.3361C6.86488 14.7045 4.92486 14.7758 4.07376 13.4664L0.222756 7.54181C-0.191951 6.9038 -0.0109272 6.0504 0.627083 5.63569C1.26509 5.22099 2.11849 5.40201 2.5332 6.04002L5.7573 11.0002L11.4147 0.714076C11.7814 0.0473232 12.6192 -0.195906 13.2859 0.170808Z"/>
</mask>
<path fill-rule="evenodd" clip-rule="evenodd" d="M13.2859 0.170808C13.9527 0.537522 14.1959 1.37531 13.8292 2.04207L7.61748 13.3361C6.86488 14.7045 4.92486 14.7758 4.07376 13.4664L0.222756 7.54181C-0.191951 6.9038 -0.0109272 6.0504 0.627083 5.63569C1.26509 5.22099 2.11849 5.40201 2.5332 6.04002L5.7573 11.0002L11.4147 0.714076C11.7814 0.0473232 12.6192 -0.195906 13.2859 0.170808Z" fill="#070707"/>
<path d="M13.8292 2.04207L16.2826 3.39144V3.39144L13.8292 2.04207ZM13.2859 0.170808L14.6353 -2.2826L14.6353 -2.2826L13.2859 0.170808ZM7.61748 13.3361L10.0709 14.6855L10.0709 14.6855L7.61748 13.3361ZM4.07376 13.4664L1.72612 14.9924L1.72612 14.9924L4.07376 13.4664ZM0.222756 7.54181L-2.12489 9.06777L0.222756 7.54181ZM0.627083 5.63569L2.15305 7.98334L2.15305 7.98334L0.627083 5.63569ZM2.5332 6.04002L4.88084 4.51405L2.5332 6.04002ZM5.7573 11.0002L3.40966 12.5262L5.95762 16.4461L8.21071 12.3496L5.7573 11.0002ZM11.4147 0.714076L8.96126 -0.635298L8.96126 -0.635296L11.4147 0.714076ZM16.2826 3.39144C17.3945 1.36971 16.657 -1.17064 14.6353 -2.2826L11.9366 2.62421C11.2483 2.24569 10.9973 1.38092 11.3758 0.692694L16.2826 3.39144ZM10.0709 14.6855L16.2826 3.39144L11.3758 0.692693L5.16408 11.9867L10.0709 14.6855ZM1.72612 14.9924C3.7303 18.0757 8.29865 17.9077 10.0709 14.6855L5.16408 11.9867C5.4311 11.5012 6.11943 11.4759 6.4214 11.9405L1.72612 14.9924ZM-2.12489 9.06777L1.72612 14.9924L6.4214 11.9405L2.5704 6.01584L-2.12489 9.06777ZM-0.898883 3.28805C-2.83346 4.54553 -3.38236 7.1332 -2.12489 9.06777L2.5704 6.01584C2.99846 6.6744 2.81161 7.55527 2.15305 7.98334L-0.898883 3.28805ZM4.88084 4.51405C3.62336 2.57948 1.03569 2.03058 -0.898884 3.28805L2.15305 7.98334C1.49449 8.4114 0.613616 8.22455 0.185554 7.56599L4.88084 4.51405ZM8.10495 9.47422L4.88084 4.51405L0.185554 7.56599L3.40966 12.5262L8.10495 9.47422ZM8.96126 -0.635296L3.3039 9.65082L8.21071 12.3496L13.8681 2.06345L8.96126 -0.635296ZM14.6353 -2.2826C12.6136 -3.39455 10.0732 -2.65703 8.96126 -0.635298L13.8681 2.06345C13.4895 2.75167 12.6248 3.00274 11.9366 2.62421L14.6353 -2.2826Z" fill="#070707" mask="url(#path-1-inside-1)"/>
</svg>
