<svg width="42" height="32" viewBox="0 0 42 32" fill="none" xmlns="http://www.w3.org/2000/svg">
<path d="M0 6C0 2.68629 2.68629 0 6 0H26C29.3137 0 32 2.68629 32 6V26C32 29.3137 29.3137 32 26 32H6C2.68629 32 0 29.3137 0 26V6Z" fill="white"/>
<path d="M9.375 12H21.625H9.375ZM9.375 12C8.91087 12 8.46575 11.8156 8.13756 11.4874C7.80937 11.1592 7.625 10.7141 7.625 10.25C7.625 9.78587 7.80937 9.34075 8.13756 9.01256C8.46575 8.68437 8.91087 8.5 9.375 8.5H21.625C22.0891 8.5 22.5342 8.68437 22.8624 9.01256C23.1906 9.34075 23.375 9.78587 23.375 10.25C23.375 10.7141 23.1906 11.1592 22.8624 11.4874C22.5342 11.8156 22.0891 12 21.625 12H9.375ZM9.375 12V20.75C9.375 21.2141 9.55937 21.6592 9.88756 21.9874C10.2158 22.3156 10.6609 22.5 11.125 22.5H19.875C20.3391 22.5 20.7842 22.3156 21.1124 21.9874C21.4406 21.6592 21.625 21.2141 21.625 20.75V12H9.375ZM13.75 15.5H17.25H13.75Z" fill="#6A6A6A"/>
</svg>
