<svg width="11" height="7" viewBox="0 0 11 7" fill="none" xmlns="http://www.w3.org/2000/svg">
<path fill-rule="evenodd" clip-rule="evenodd" d="M0.293 1.293C0.480528 1.10553 0.734836 1.00021 1 1.00021C1.26516 1.00021 1.51947 1.10553 1.707 1.293L5 4.586L8.293 1.293C8.38525 1.19749 8.49559 1.12131 8.6176 1.0689C8.7396 1.01649 8.87082 0.988904 9.0036 0.987751C9.13638 0.986597 9.26806 1.0119 9.39095 1.06218C9.51385 1.11246 9.6255 1.18671 9.71939 1.28061C9.81329 1.3745 9.88754 1.48615 9.93782 1.60905C9.9881 1.73194 10.0134 1.86362 10.0123 1.9964C10.0111 2.12918 9.98351 2.2604 9.9311 2.38241C9.87869 2.50441 9.80251 2.61475 9.707 2.707L5.707 6.707C5.51947 6.89447 5.26516 6.99979 5 6.99979C4.73484 6.99979 4.48053 6.89447 4.293 6.707L0.293 2.707C0.105529 2.51947 0.000213623 2.26517 0.000213623 2C0.000213623 1.73484 0.105529 1.48053 0.293 1.293V1.293Z" fill="white"/>
</svg>
