<svg width="32" height="32" viewBox="0 0 32 32" fill="none" xmlns="http://www.w3.org/2000/svg">
<path d="M0 6C0 2.68629 2.68629 0 6 0H26C29.3137 0 32 2.68629 32 6V26C32 29.3137 29.3137 32 26 32H6C2.68629 32 0 29.3137 0 26V6Z" fill="white"/>
<rect width="16" height="16" transform="translate(8 8)" fill="white"/>
<path d="M11.3333 13.3334H20.6667H11.3333ZM11.3333 13.3334C10.9797 13.3334 10.6406 13.1929 10.3905 12.9428C10.1405 12.6928 10 12.3536 10 12C10 11.6464 10.1405 11.3073 10.3905 11.0572C10.6406 10.8072 10.9797 10.6667 11.3333 10.6667H20.6667C21.0203 10.6667 21.3594 10.8072 21.6095 11.0572C21.8595 11.3073 22 11.6464 22 12C22 12.3536 21.8595 12.6928 21.6095 12.9428C21.3594 13.1929 21.0203 13.3334 20.6667 13.3334H11.3333ZM11.3333 13.3334V20C11.3333 20.3536 11.4738 20.6928 11.7239 20.9428C11.9739 21.1929 12.313 21.3334 12.6667 21.3334H19.3333C19.687 21.3334 20.0261 21.1929 20.2761 20.9428C20.5262 20.6928 20.6667 20.3536 20.6667 20V13.3334H11.3333ZM14.6667 16H17.3333H14.6667Z" fill="#C4C4C4"/>
</svg>
