<svg width="32" height="32" viewBox="0 0 32 32" fill="none" xmlns="http://www.w3.org/2000/svg">
<path d="M0 6C0 2.68629 2.68629 0 6 0H26C29.3137 0 32 2.68629 32 6V26C32 29.3137 29.3137 32 26 32H6C2.68629 32 0 29.3137 0 26V6Z" fill="white"/>
<path d="M18 12.6667C18.3536 12.6667 18.6928 12.8071 18.9428 13.0572C19.1929 13.3072 19.3333 13.6464 19.3333 14L18 12.6667ZM22 14C22.0002 14.6248 21.854 15.2409 21.5732 15.799C21.2924 16.3571 20.8847 16.8417 20.3829 17.2139C19.8811 17.5861 19.2991 17.8356 18.6835 17.9423C18.0679 18.0491 17.4358 18.0102 16.838 17.8287L15.3333 19.3333H14V20.6667H12.6667V22H10.6667C10.4899 22 10.3203 21.9298 10.1953 21.8047C10.0702 21.6797 10 21.5101 10 21.3333V19.6093C10 19.4325 10.0703 19.263 10.1953 19.138L14.1713 15.162C14.005 14.612 13.959 14.0326 14.0367 13.4633C14.1143 12.894 14.3137 12.348 14.6213 11.8627C14.9289 11.3773 15.3374 10.964 15.8191 10.6507C16.3008 10.3374 16.8443 10.1316 17.4127 10.0472C17.9811 9.96283 18.561 10.0019 19.1129 10.1618C19.6648 10.3216 20.1758 10.5985 20.6111 10.9736C21.0464 11.3487 21.3958 11.8132 21.6354 12.3354C21.8751 12.8576 21.9994 13.4254 22 14Z" fill="#C4C4C4"/>
</svg>
