<svg width="32" height="32" viewBox="0 0 32 32" fill="none" xmlns="http://www.w3.org/2000/svg">
<path d="M0 6C0 2.68629 2.68629 0 6 0H26C29.3137 0 32 2.68629 32 6V26C32 29.3137 29.3137 32 26 32H6C2.68629 32 0 29.3137 0 26V6Z" fill="white"/>
<path d="M10.6667 12.6667V19.3333C10.6667 20.8067 13.0547 22 16 22C18.9453 22 21.3333 20.8067 21.3333 19.3333V12.6667H10.6667ZM10.6667 12.6667C10.6667 14.14 13.0547 15.3333 16 15.3333C18.9453 15.3333 21.3333 14.14 21.3333 12.6667H10.6667ZM10.6667 12.6667C10.6667 11.1933 13.0547 10 16 10C18.9453 10 21.3333 11.1933 21.3333 12.6667H10.6667ZM21.3333 16C21.3333 17.4733 18.9453 18.6667 16 18.6667C13.0547 18.6667 10.6667 17.4733 10.6667 16" fill="#C4C4C4"/>
</svg>
