<svg width="32" height="32" viewBox="0 0 32 32" fill="none" xmlns="http://www.w3.org/2000/svg">
<path fill-rule="evenodd" clip-rule="evenodd" d="M16 2C16.3713 2 16.7274 2.1475 16.99 2.41005C17.2525 2.6726 17.4 3.0287 17.4 3.4V4.8C17.4 5.1713 17.2525 5.5274 16.99 5.78995C16.7274 6.0525 16.3713 6.2 16 6.2C15.6287 6.2 15.2726 6.0525 15.0101 5.78995C14.7475 5.5274 14.6 5.1713 14.6 4.8V3.4C14.6 3.21615 14.6362 3.0341 14.7066 2.86424C14.7769 2.69439 14.88 2.54005 15.0101 2.41005C15.1401 2.28005 15.2944 2.17693 15.4642 2.10657C15.6341 2.03621 15.8161 2 16 2ZM6.1 6.1C6.23 5.96998 6.38435 5.86685 6.55421 5.79648C6.72408 5.72612 6.90614 5.6899 7.09 5.6899C7.27386 5.6899 7.45592 5.72612 7.62579 5.79648C7.79565 5.86685 7.95 5.96998 8.08 6.1L9.07 7.09C9.20001 7.22001 9.30314 7.37435 9.3735 7.54422C9.44386 7.71408 9.48007 7.89614 9.48007 8.08C9.48007 8.26386 9.44386 8.44592 9.3735 8.61578C9.30314 8.78565 9.20001 8.93999 9.07 9.07C8.93999 9.20001 8.78565 9.30314 8.61578 9.3735C8.44592 9.44386 8.26386 9.48007 8.08 9.48007C7.89614 9.48007 7.71408 9.44386 7.54422 9.3735C7.37435 9.30314 7.22001 9.20001 7.09 9.07L6.1 8.08C5.96998 7.95 5.86685 7.79565 5.79648 7.62579C5.72612 7.45592 5.6899 7.27386 5.6899 7.09C5.6899 6.90614 5.72612 6.72408 5.79648 6.55421C5.86685 6.38435 5.96998 6.23 6.1 6.1ZM25.9 6.1C26.03 6.23 26.1332 6.38435 26.2035 6.55421C26.2739 6.72408 26.3101 6.90614 26.3101 7.09C26.3101 7.27386 26.2739 7.45592 26.2035 7.62579C26.1332 7.79565 26.03 7.95 25.9 8.08L24.91 9.07C24.6474 9.33256 24.2913 9.48007 23.92 9.48007C23.5487 9.48007 23.1926 9.33256 22.93 9.07C22.6674 8.80744 22.5199 8.45132 22.5199 8.08C22.5199 7.70868 22.6674 7.35256 22.93 7.09L23.92 6.1C24.05 5.96998 24.2043 5.86685 24.3742 5.79648C24.5441 5.72612 24.7261 5.6899 24.91 5.6899C25.0939 5.6899 25.2759 5.72612 25.4458 5.79648C25.6157 5.86685 25.77 5.96998 25.9 6.1ZM9 16C9 14.1435 9.7375 12.363 11.0503 11.0503C12.363 9.7375 14.1435 9 16 9C17.8565 9 19.637 9.7375 20.9497 11.0503C22.2625 12.363 23 14.1435 23 16C23 17.8565 22.2625 19.637 20.9497 20.9497C19.637 22.2625 17.8565 23 16 23C14.1435 23 12.363 22.2625 11.0503 20.9497C9.7375 19.637 9 17.8565 9 16ZM2 16C2 15.6287 2.1475 15.2726 2.41005 15.0101C2.6726 14.7475 3.0287 14.6 3.4 14.6H4.8C4.98385 14.6 5.1659 14.6362 5.33576 14.7066C5.50561 14.7769 5.65995 14.88 5.78995 15.0101C5.91995 15.1401 6.02308 15.2944 6.09343 15.4642C6.16379 15.6341 6.2 15.8161 6.2 16C6.2 16.1839 6.16379 16.3659 6.09343 16.5358C6.02308 16.7056 5.91995 16.8599 5.78995 16.99C5.65995 17.12 5.50561 17.2231 5.33576 17.2934C5.1659 17.3638 4.98385 17.4 4.8 17.4H3.4C3.0287 17.4 2.6726 17.2525 2.41005 16.99C2.1475 16.7274 2 16.3713 2 16ZM25.8 16C25.8 15.6287 25.9475 15.2726 26.2101 15.0101C26.4726 14.7475 26.8287 14.6 27.2 14.6H28.6C28.7839 14.6 28.9659 14.6362 29.1358 14.7066C29.3056 14.7769 29.4599 14.88 29.5899 15.0101C29.72 15.1401 29.8231 15.2944 29.8934 15.4642C29.9638 15.6341 30 15.8161 30 16C30 16.1839 29.9638 16.3659 29.8934 16.5358C29.8231 16.7056 29.72 16.8599 29.5899 16.99C29.4599 17.12 29.3056 17.2231 29.1358 17.2934C28.9659 17.3638 28.7839 17.4 28.6 17.4H27.2C26.8287 17.4 26.4726 17.2525 26.2101 16.99C25.9475 16.7274 25.8 16.3713 25.8 16ZM22.93 22.93C23.06 22.8 23.2143 22.6968 23.3842 22.6265C23.5541 22.5561 23.7361 22.5199 23.92 22.5199C24.1039 22.5199 24.2859 22.5561 24.4558 22.6265C24.6257 22.6968 24.78 22.8 24.91 22.93L25.9 23.92C26.03 24.05 26.1331 24.2044 26.2035 24.3742C26.2739 24.5441 26.3101 24.7261 26.3101 24.91C26.3101 25.0939 26.2739 25.2759 26.2035 25.4458C26.1331 25.6156 26.03 25.77 25.9 25.9C25.77 26.03 25.6156 26.1331 25.4458 26.2035C25.2759 26.2739 25.0939 26.3101 24.91 26.3101C24.7261 26.3101 24.5441 26.2739 24.3742 26.2035C24.2044 26.1331 24.05 26.03 23.92 25.9L22.93 24.91C22.8 24.78 22.6968 24.6257 22.6265 24.4558C22.5561 24.2859 22.5199 24.1039 22.5199 23.92C22.5199 23.7361 22.5561 23.5541 22.6265 23.3842C22.6968 23.2143 22.8 23.06 22.93 22.93ZM7.09 22.93C7.35256 22.6674 7.70868 22.5199 8.08 22.5199C8.45132 22.5199 8.80744 22.6674 9.07 22.93C9.33256 23.1926 9.48007 23.5487 9.48007 23.92C9.48007 24.2913 9.33256 24.6474 9.07 24.91L8.08 25.9C7.94999 26.03 7.79565 26.1331 7.62578 26.2035C7.45592 26.2739 7.27386 26.3101 7.09 26.3101C6.90614 26.3101 6.72408 26.2739 6.55422 26.2035C6.38435 26.1331 6.23001 26.03 6.1 25.9C5.96999 25.77 5.86686 25.6156 5.7965 25.4458C5.72614 25.2759 5.68993 25.0939 5.68993 24.91C5.68993 24.7261 5.72614 24.5441 5.7965 24.3742C5.86686 24.2044 5.96999 24.05 6.1 23.92L7.09 22.93ZM16 25.8C16.3713 25.8 16.7274 25.9475 16.99 26.2101C17.2525 26.4726 17.4 26.8287 17.4 27.2V28.6C17.4 28.9713 17.2525 29.3274 16.99 29.5899C16.7274 29.8525 16.3713 30 16 30C15.6287 30 15.2726 29.8525 15.0101 29.5899C14.7475 29.3274 14.6 28.9713 14.6 28.6V27.2C14.6 26.8287 14.7475 26.4726 15.0101 26.2101C15.2726 25.9475 15.6287 25.8 16 25.8Z" fill="url(#paint0_linear_1_1734)"/>
<defs>
<linearGradient id="paint0_linear_1_1734" x1="2" y1="2" x2="30" y2="30" gradientUnits="userSpaceOnUse">
<stop stop-color="#BBBBBB"/>
<stop offset="1" stop-color="#BBBBBB"/>
</linearGradient>
</defs>
</svg>
